<svg width="116.000000" height="24.000000" viewBox="0 0 116 24" fill="none" xmlns="http://www.w3.org/2000/svg" xmlns:xlink="http://www.w3.org/1999/xlink">
	<desc>
			Created with Pixso.
	</desc>
	<defs/>
	<path id="DEVELOPERS" d="M58.46 9.39Q57.65 10.93 57.65 13Q57.65 15.07 58.46 16.62Q59.05 17.76 59.97 18.51Q60.3 18.78 60.67 19Q61.04 19.21 61.42 19.37Q62.53 19.82 63.82 19.82Q65.05 19.82 66.12 19.4Q66.55 19.23 66.95 19Q67.33 18.77 67.66 18.5Q68.58 17.75 69.17 16.62Q70 15.07 70 13Q70 10.93 69.19 9.39Q68.63 8.33 67.78 7.61Q67.4 7.28 66.96 7.03Q66.52 6.77 66.04 6.59Q65 6.2 63.82 6.2Q62.64 6.2 61.6 6.59Q61.13 6.77 60.68 7.03Q60.26 7.27 59.9 7.58Q59.03 8.31 58.46 9.39ZM114.76 17.79Q115.25 16.96 115.25 15.84Q115.25 14.6 114.66 13.84Q114.23 13.28 113.67 12.93Q113.45 12.8 113.22 12.69Q112.39 12.32 111.06 11.92Q110.1 11.65 109.55 11.43Q108.99 11.2 108.62 10.83Q108.47 10.68 108.38 10.51Q108.25 10.24 108.25 9.91Q108.25 9.52 108.4 9.22Q108.56 8.92 108.86 8.7Q109.47 8.25 110.48 8.25Q111.45 8.25 112.12 8.69Q112.84 9.17 113.23 10.14L115.09 9.08Q114.94 8.58 114.68 8.17Q114.26 7.48 113.52 6.99Q112.33 6.2 110.59 6.2Q109.31 6.2 108.24 6.63Q107.48 6.93 106.93 7.46Q106.71 7.67 106.52 7.93Q106.41 8.07 106.32 8.23Q105.87 9 105.87 10.03Q105.87 11.2 106.44 11.92Q106.86 12.45 107.4 12.79Q107.59 12.91 107.8 13Q108.59 13.36 109.88 13.76Q110.93 14.06 111.51 14.31Q112.06 14.54 112.45 14.94Q112.46 14.95 112.48 14.97Q112.57 15.07 112.64 15.18Q112.87 15.54 112.87 16.04Q112.87 16.55 112.64 16.92Q112.49 17.14 112.26 17.31Q111.65 17.75 110.59 17.75Q109.43 17.75 108.59 17.24Q108.53 17.2 108.47 17.16Q108.27 17.02 108.1 16.86Q107.5 16.32 107.17 15.48L105.31 16.55Q105.5 17.16 105.85 17.67Q106.36 18.43 107.22 18.95Q107.43 19.08 107.65 19.18Q108.93 19.82 110.53 19.82Q111.83 19.82 112.9 19.37Q113.62 19.07 114.14 18.57Q114.4 18.32 114.61 18.02Q114.69 17.91 114.76 17.79ZM16.9 13.87L22.4 13.87L22.4 11.88L16.9 11.88L16.9 8.41L23.05 8.41L23.05 6.41L14.63 6.41L14.63 19.61L23.25 19.61L23.25 17.61L16.9 17.61L16.9 13.87ZM40.12 13.87L45.62 13.87L45.62 11.88L40.12 11.88L40.12 8.41L46.27 8.41L46.27 6.41L37.85 6.41L37.85 19.61L46.47 19.61L46.47 17.61L40.12 17.61L40.12 13.87ZM85.73 13.87L91.24 13.87L91.24 11.88L85.73 11.88L85.73 8.41L91.89 8.41L91.89 6.41L83.46 6.41L83.46 19.61L92.08 19.61L92.08 17.61L85.73 17.61L85.73 13.87ZM9.05 7.2Q7.5 6.43 5.56 6.43L1.44 6.43L1.44 19.61L5.56 19.61Q7.5 19.61 9.05 18.82L9.05 18.82Q9.82 18.43 10.43 17.87Q11.04 17.3 11.49 16.55Q12.38 15.05 12.38 13Q12.38 10.97 11.49 9.47Q11.04 8.71 10.41 8.14Q9.81 7.58 9.05 7.2ZM30.31 16.45L26.54 6.43L23.99 6.43L29.26 19.61L31.21 19.61L36.28 6.43L33.89 6.43L30.31 16.45ZM50.99 6.43L48.72 6.43L48.72 19.61L57.16 19.61L57.16 17.57L50.99 17.57L50.99 6.43ZM79.25 6.96Q78.12 6.43 76.62 6.43L72.25 6.43L72.25 19.61L74.52 19.61L74.52 14.93L76.62 14.93Q78.12 14.93 79.25 14.4Q80.17 13.97 80.75 13.26Q80.89 13.09 81 12.91Q81.14 12.71 81.24 12.49Q81.63 11.68 81.63 10.7Q81.63 9.72 81.25 8.92Q81.14 8.69 81 8.47Q80.86 8.24 80.68 8.03Q80.11 7.37 79.25 6.96ZM102.24 19.61L104.97 19.61L101.14 14.19Q102.15 13.78 102.79 13.05Q102.91 12.91 103.02 12.76Q103.19 12.52 103.31 12.27Q103.7 11.49 103.7 10.54Q103.7 9.6 103.33 8.83Q103.22 8.6 103.07 8.38Q102.96 8.22 102.84 8.08Q102.26 7.37 101.33 6.95Q100.2 6.43 98.72 6.43L94.33 6.43L94.33 19.61L96.6 19.61L96.6 14.64L98.83 14.64L102.24 19.61ZM60.51 15.48Q60.04 14.41 60.04 13Q60.04 11.6 60.51 10.53Q60.92 9.6 61.62 9.03Q61.73 8.95 61.84 8.87Q62.11 8.69 62.4 8.56Q63.05 8.29 63.82 8.29Q64.6 8.29 65.26 8.57Q65.54 8.69 65.8 8.87Q65.93 8.96 66.06 9.06Q66.74 9.62 67.13 10.53Q67.6 11.6 67.6 13Q67.6 14.41 67.13 15.48Q66.73 16.4 66.04 16.96Q65.93 17.06 65.81 17.14Q65.59 17.29 65.35 17.41Q64.66 17.73 63.82 17.73Q62.99 17.73 62.31 17.42Q62.06 17.3 61.83 17.14Q61.73 17.07 61.63 16.99Q60.92 16.42 60.51 15.48ZM8.56 16.62Q7.36 17.65 5.29 17.65L3.7 17.65L3.7 8.37L5.29 8.37Q7.29 8.37 8.49 9.36Q8.63 9.47 8.75 9.59Q8.91 9.75 9.05 9.93Q9.98 11.1 9.98 13Q9.98 15 9 16.18Q8.89 16.32 8.76 16.44Q8.66 16.53 8.56 16.62ZM78.45 12.38Q77.68 12.98 76.37 12.98L74.52 12.98L74.52 8.37L76.37 8.37Q77.68 8.37 78.45 9Q78.74 9.23 78.91 9.53Q79.21 10.02 79.21 10.7Q79.21 11.39 78.9 11.88Q78.73 12.16 78.45 12.38ZM96.6 12.69L96.6 8.37L98.46 8.37Q99.73 8.37 100.5 8.93Q100.81 9.15 101 9.45Q101.28 9.9 101.28 10.54Q101.28 11.16 101 11.61Q100.82 11.91 100.5 12.14Q99.73 12.69 98.46 12.69L96.6 12.69Z" fill="#000000" fill-opacity="0.900000" fill-rule="evenodd"/>
</svg>
