<svg width="78.000000" height="14.000000" viewBox="0 0 78 14" fill="none" xmlns="http://www.w3.org/2000/svg" xmlns:xlink="http://www.w3.org/1999/xlink">
	<desc>
			Created with Pixso.
	</desc>
	<defs/>
	<mask id="mask17_1119" mask-type="alpha" maskUnits="userSpaceOnUse" x="1.399994" y="0.000000" width="76.526421" height="14.000000">
		<rect id="svg" x="1.399994" width="76.526421" height="13.999994" fill="#000000" fill-opacity="1.000000"/>
	</mask>
	<g mask="url(#mask17_1119)">
		<path id="path" d="M76.25 10.29C76.78 10.05 77.19 9.7 77.48 9.25C77.78 8.79 77.92 8.28 77.92 7.67C77.92 6.26 77.07 5.33 75.37 4.85L73.94 4.42C73.39 4.27 72.99 4.07 72.73 3.83C72.48 3.6 72.35 3.3 72.35 2.95C72.35 2.53 72.53 2.17 72.9 1.89C73.26 1.61 73.73 1.47 74.29 1.47C74.79 1.47 75.24 1.59 75.64 1.84C75.99 2.07 76.26 2.36 76.46 2.72C76.47 2.73 76.5 2.79 76.53 2.85C76.58 2.81 76.62 2.79 76.65 2.77L77.66 2.16C77.64 2.11 77.73 2.01 77.72 1.98C77.43 1.41 77 0.95 76.43 0.63C75.81 0.27 75.1 0.1 74.29 0.1C73.61 0.1 73 0.22 72.47 0.47C71.93 0.72 71.51 1.07 71.21 1.52C70.91 1.98 70.76 2.5 70.76 3.09C70.76 4.45 71.58 5.39 73.26 5.89L74.79 6.34C75.31 6.5 75.69 6.7 75.94 6.92C76.19 7.17 76.33 7.45 76.33 7.81C76.33 8.23 76.15 8.6 75.78 8.87C75.41 9.14 74.94 9.29 74.36 9.29C73.68 9.29 73.04 9.08 72.46 8.67C72.23 8.51 72.03 8.29 71.9 8.04C71.87 8 71.85 7.92 71.79 7.82C71.69 7.87 71.62 7.91 71.57 7.92L70.58 8.47C70.57 8.48 70.54 8.5 70.48 8.53C70.5 8.59 70.51 8.62 70.53 8.64C70.83 9.25 71.31 9.73 71.98 10.09C72.69 10.47 73.5 10.65 74.42 10.65C75.11 10.65 75.72 10.53 76.25 10.29Z" fill="#FFFFFF" fill-opacity="1.000000" fill-rule="evenodd"/>
		<path id="path" d="M58.28 3.12L58 3.12L56.62 3.12L56.53 3.23L54.61 8.5L52.69 3.25L52.65 3.12L52.52 3.12L50.86 3.12L50.95 3.34L53.78 10.57L52.41 13.72C52.4 13.75 52.37 13.81 52.33 13.91L52.59 14L53.98 14L58.22 3.26L58.28 3.12Z" fill="#FFFFFF" fill-opacity="1.000000" fill-rule="nonzero"/>
		<path id="path" d="M47.53 2.92C46.99 2.92 46.5 3.04 46.08 3.28C45.75 3.47 45.43 3.75 45.23 4.07L45.11 3.12L43.76 3.12L43.76 10.55L45.38 10.55L45.38 6.29C45.38 5.73 45.54 5.28 45.87 4.94C46.19 4.6 46.61 4.42 47.12 4.42C47.6 4.42 47.97 4.59 48.26 4.89C48.54 5.2 48.68 5.63 48.68 6.16L48.68 10.55L50.28 10.55L50.28 5.85C50.28 5.28 50.17 4.76 49.93 4.32C49.7 3.88 49.38 3.53 48.96 3.28C48.55 3.04 48.07 2.92 47.53 2.92Z" fill="#FFFFFF" fill-opacity="1.000000" fill-rule="nonzero"/>
		<path id="path" d="M39.16 2.92C39.88 2.92 40.52 3.09 41.07 3.41C41.62 3.73 42.06 4.2 42.37 4.79C42.68 5.39 42.84 6.07 42.84 6.84C42.84 7.6 42.68 8.28 42.37 8.87C42.06 9.47 41.62 9.92 41.07 10.25C40.52 10.58 39.88 10.74 39.16 10.74C38.43 10.74 37.8 10.58 37.24 10.25C36.68 9.92 36.25 9.47 35.93 8.87C35.62 8.28 35.47 7.6 35.47 6.84C35.47 6.06 35.62 5.38 35.93 4.79C36.25 4.19 36.68 3.73 37.24 3.41C37.8 3.09 38.43 2.92 39.16 2.92ZM39.16 4.38C38.55 4.38 38.05 4.6 37.68 5.06C37.3 5.5 37.11 6.1 37.11 6.84C37.11 7.56 37.3 8.16 37.68 8.6C38.05 9.06 38.55 9.28 39.16 9.28C39.77 9.28 40.25 9.06 40.63 8.6C41 8.16 41.19 7.56 41.19 6.84C41.19 6.1 41 5.5 40.63 5.06C40.25 4.6 39.77 4.38 39.16 4.38Z" fill="#FFFFFF" fill-opacity="1.000000" fill-rule="nonzero"/>
		<path id="path" d="M32.13 2.92C32.63 2.94 33.07 3.06 33.45 3.29C33.84 3.54 34.16 3.89 34.38 4.34C34.59 4.76 34.7 5.25 34.71 5.78L34.71 10.55L33.11 10.55L33.11 6.03C33.11 5.53 32.98 5.16 32.72 4.87C32.47 4.57 32.13 4.42 31.69 4.42C31.21 4.42 30.83 4.59 30.53 4.89C30.25 5.19 30.1 5.6 30.09 6.09L30.09 10.55L28.48 10.55L28.48 6.03C28.48 5.53 28.35 5.16 28.09 4.87C27.84 4.57 27.49 4.42 27.05 4.42C26.58 4.42 26.21 4.59 25.91 4.89C25.62 5.19 25.48 5.6 25.47 6.09L25.47 10.55L23.85 10.55L23.85 3.12L25.21 3.12L25.29 4.07C25.49 3.78 25.76 3.5 26.07 3.32C26.48 3.09 26.98 2.92 27.47 2.92C27.98 2.92 28.43 3.04 28.82 3.29C29.18 3.53 29.48 3.82 29.7 4.21C29.91 3.84 30.2 3.54 30.58 3.32C31 3.09 31.5 2.94 32 2.92L32.13 2.92Z" fill="#FFFFFF" fill-opacity="1.000000" fill-rule="nonzero"/>
		<path id="path" d="M22.29 3.01C21.78 3.01 21.33 3.12 20.95 3.33C20.66 3.51 20.37 3.77 20.19 4.05L20.09 3.12L18.62 3.12L18.62 10.55L20.23 10.55L20.23 6.3C20.23 5.76 20.4 5.33 20.74 5.01C21.09 4.69 21.55 4.53 22.14 4.53C22.35 4.53 22.54 4.54 22.69 4.56C22.71 4.56 22.78 4.58 22.81 4.58L22.91 4.6L22.91 4.42L22.91 3.13C22.86 3.12 22.78 3.05 22.75 3.04C22.62 3.02 22.47 3.01 22.29 3.01Z" fill="#FFFFFF" fill-opacity="1.000000" fill-rule="nonzero"/>
		<path id="path" d="M14.22 2.92C15.13 2.92 15.86 3.16 16.41 3.63C16.94 4.1 17.2 4.73 17.21 5.56L17.21 10.55L15.88 10.55L15.78 9.68C15.6 9.93 15.35 10.17 15.08 10.33L14.97 10.39C14.58 10.59 14.12 10.69 13.59 10.69C12.8 10.69 12.16 10.48 11.66 10.07C11.16 9.64 10.91 9.09 10.91 8.42C10.91 7.95 11.05 7.53 11.31 7.16C11.57 6.78 11.94 6.5 12.4 6.29C12.85 6.1 13.36 6 13.93 6L15.63 6L15.63 5.81C15.63 5.37 15.52 5.01 15.29 4.78C15.03 4.53 14.6 4.35 14.13 4.35C13.76 4.35 13.42 4.42 13.12 4.59C12.86 4.72 12.63 4.91 12.44 5.16L12.38 5.26L12.2 5.22L11.33 4.57L11.2 4.45C11.21 4.42 11.28 4.32 11.29 4.29C11.58 3.88 11.96 3.56 12.44 3.32C12.96 3.06 13.55 2.92 14.22 2.92ZM15.56 7.2L14.05 7.2C13.59 7.2 13.22 7.31 12.93 7.53C12.66 7.75 12.52 8 12.52 8.34C12.52 8.66 12.64 8.91 12.9 9.1C13.16 9.31 13.49 9.41 13.91 9.41C14.44 9.41 14.86 9.25 15.17 8.92C15.47 8.62 15.62 8.22 15.63 7.72L15.56 7.2Z" fill="#FFFFFF" fill-opacity="1.000000" fill-rule="nonzero"/>
		<path id="polygon" d="M3.07 0.2L1.39 0.2L1.39 10.55L3.07 10.55L3.07 5.98L8.1 5.98L8.1 10.55L9.79 10.55L9.79 0.2L8.1 0.2L8.1 4.43L3.07 4.43L3.07 0.2Z" fill="#FFFFFF" fill-opacity="1.000000" fill-rule="nonzero"/>
		<path id="path" d="M64.62 -3.06e-5C67.6 -3.06e-5 70.01 2.41 70.01 5.38C70.01 8.35 67.6 10.77 64.62 10.77C61.64 10.77 59.23 8.35 59.23 5.38C59.23 2.41 61.64 -3.06e-5 64.62 -3.06e-5ZM64.62 1.6C62.53 1.6 60.84 3.29 60.84 5.38C60.84 7.47 62.53 9.16 64.62 9.16C66.71 9.16 68.4 7.47 68.4 5.38C68.4 3.29 66.71 1.6 64.62 1.6Z" fill="#FFFFFF" fill-opacity="1.000000" fill-rule="nonzero"/>
		<rect id="rect" x="61.033516" y="12.446808" width="7.183347" height="1.486162" fill="#1F69FF" fill-opacity="1.000000"/>
	</g>
</svg>
